<svg width="20" height="22" viewBox="0 0 20 22" fill="none" xmlns="http://www.w3.org/2000/svg">
<path d="M15.7499 3.08997L13.2199 5.02997L14.1299 8.08997L11.4999 6.27997L8.86995 8.08997L9.77995 5.02997L7.24995 3.08997L10.4399 2.99997L11.4999 -3.05176e-05L12.5599 2.99997L15.7499 3.08997ZM19.2499 9.99997L17.6099 11.25L18.1999 13.23L16.4999 12.06L14.7999 13.23L15.3899 11.25L13.7499 9.99997L15.8099 9.94997L16.4999 7.99997L17.1899 9.94997L19.2499 9.99997ZM16.9699 14.95C17.7999 14.87 18.6899 16.05 18.1599 16.8C17.8399 17.25 17.4999 17.67 17.0799 18.07C13.1699 22 6.83995 22 2.93995 18.07C-0.970054 14.17 -0.970054 7.82997 2.93995 3.92997C3.33995 3.52997 3.75995 3.16997 4.20995 2.84997C4.95995 2.31997 6.13995 3.20997 6.05995 4.03997C5.78995 6.89997 6.74995 9.86997 8.94995 12.06C11.1399 14.26 14.0999 15.22 16.9699 14.95Z" fill="white"/>
</svg>
