<svg width="28" height="28" viewBox="0 0 28 28" fill="none" xmlns="http://www.w3.org/2000/svg">
<path d="M6.56537 4.75799L6.07765 4.26826C5.58993 3.77854 4.80207 3.7911 4.32685 4.26826L4.31435 4.28082C3.82663 4.77055 3.82663 5.56164 4.31435 6.03881L4.80207 6.52854C5.28979 7.01826 6.06514 7.01826 6.55287 6.52854L6.56537 6.51598C7.05309 6.03881 7.05309 5.23516 6.56537 4.75799ZM2.76364 12.7443H1.48806C0.80025 12.7443 0.25 13.2968 0.25 13.9874V14C0.25 14.6906 0.80025 15.2431 1.48806 15.2431H2.75114C3.45146 15.2557 4.00171 14.7032 4.00171 14.0126V14C4.00171 13.2968 3.45146 12.7443 2.76364 12.7443ZM14.0188 0.25H14.0063C13.3059 0.25 12.7557 0.802511 12.7557 1.49315V2.69863C12.7557 3.38927 13.3059 3.94178 13.9937 3.94178H14.0063C14.7066 3.95434 15.2568 3.40183 15.2568 2.71119V1.49315C15.2568 0.802511 14.7066 0.25 14.0188 0.25ZM23.6982 4.28082C23.2104 3.7911 22.4226 3.7911 21.9349 4.26826L21.4471 4.75799C20.9594 5.24772 20.9594 6.03881 21.4471 6.51598L21.4596 6.52854C21.9474 7.01826 22.7352 7.01826 23.2104 6.52854L23.6982 6.03881C24.1859 5.54909 24.1859 4.77055 23.6982 4.28082ZM21.4346 23.242L21.9224 23.7317C22.4101 24.2215 23.1979 24.2215 23.6857 23.7317C24.1734 23.242 24.1734 22.4509 23.6857 21.9612L23.1979 21.4715C22.7102 20.9817 21.9224 20.9943 21.4471 21.4715C20.9469 21.9737 20.9469 22.7523 21.4346 23.242ZM24.0108 13.9874V14C24.0108 14.6906 24.5611 15.2431 25.2489 15.2431H26.5119C27.1998 15.2431 27.75 14.6906 27.75 14V13.9874C27.75 13.2968 27.1998 12.7443 26.5119 12.7443H25.2489C24.5611 12.7443 24.0108 13.2968 24.0108 13.9874ZM14.0063 6.46575C9.86687 6.46575 6.50284 9.84361 6.50284 14C6.50284 18.1564 9.86687 21.5342 14.0063 21.5342C18.1456 21.5342 21.5097 18.1564 21.5097 14C21.5097 9.84361 18.1456 6.46575 14.0063 6.46575ZM13.9937 27.75H14.0063C14.6941 27.75 15.2443 27.1975 15.2443 26.5068V25.3014C15.2443 24.6107 14.6941 24.0582 14.0063 24.0582H13.9937C13.3059 24.0582 12.7557 24.6107 12.7557 25.3014V26.5068C12.7557 27.1975 13.3059 27.75 13.9937 27.75ZM4.31435 23.7192C4.80207 24.2089 5.58993 24.2089 6.07765 23.7192L6.56537 23.2295C7.05309 22.7397 7.04059 21.9486 6.56537 21.4715L6.55287 21.4589C6.06514 20.9692 5.27729 20.9692 4.78956 21.4589L4.30184 21.9486C3.82663 22.4509 3.82663 23.2295 4.31435 23.7192Z" fill="white" fill-opacity="0.8"/>
</svg>
