<svg width="35" height="28" viewBox="0 0 35 28" fill="none" xmlns="http://www.w3.org/2000/svg">
<path d="M4.90972 4.22389L4.53056 3.85556C4.15139 3.48723 3.53889 3.49667 3.16945 3.85556L3.15972 3.865C2.78056 4.23334 2.78056 4.82834 3.15972 5.18722L3.53889 5.55556C3.91806 5.92389 4.52083 5.92389 4.9 5.55556L4.90972 5.54611C5.28889 5.18722 5.28889 4.58278 4.90972 4.22389Z" fill="white"/>
<path d="M1.95417 10.2306H0.9625C0.427778 10.2306 0 10.6461 0 11.1656V11.175C0 11.6944 0.427778 12.11 0.9625 12.11H1.94444C2.48889 12.1194 2.91667 11.7039 2.91667 11.1844V11.175C2.91667 10.6461 2.48889 10.2306 1.95417 10.2306Z" fill="white"/>
<path d="M10.7042 0.833336H10.6944C10.15 0.833336 9.72222 1.24889 9.72222 1.76834V2.675C9.72222 3.19445 10.15 3.61 10.6847 3.61H10.6944C11.2389 3.61945 11.6667 3.20389 11.6667 2.68445V1.76834C11.6667 1.24889 11.2389 0.833336 10.7042 0.833336Z" fill="white"/>
<path d="M18.2292 3.865C17.85 3.49667 17.2375 3.49667 16.8583 3.85556L16.4792 4.22389C16.1 4.59223 16.1 5.18722 16.4792 5.54611L16.4889 5.55556C16.8681 5.92389 17.4806 5.92389 17.85 5.55556L18.2292 5.18722C18.6083 4.81889 18.6083 4.23334 18.2292 3.865Z" fill="white"/>
<path d="M10.6944 5.50834C7.47639 5.50834 4.86111 8.04889 4.86111 11.175C4.86111 13.2014 5.95996 14.9817 7.60955 15.9835C8.39888 13.7622 10.5701 12.1667 13.125 12.1667C13.2255 12.1667 13.3255 12.1691 13.4248 12.174C13.8459 10.7221 14.6894 9.44204 15.8182 8.467C14.8282 6.7053 12.9033 5.50834 10.6944 5.50834Z" fill="white"/>
<path d="M3.15972 18.485C3.53889 18.8533 4.15139 18.8533 4.53056 18.485L4.90972 18.1167C5.28889 17.7483 5.27917 17.1533 4.90972 16.7944L4.9 16.785C4.52083 16.4167 3.90833 16.4167 3.52917 16.785L3.15 17.1533C2.78056 17.5311 2.78056 18.1167 3.15972 18.485Z" fill="white"/>
<path d="M10.2083 27.75H29.1667C32.3883 27.75 35 25.2129 35 22.0833C35 19.4254 33.1163 17.195 30.575 16.5829C30.608 16.2958 30.625 16.004 30.625 15.7083C30.625 11.4051 27.034 7.91667 22.6042 7.91667C18.93 7.91667 15.8328 10.3165 14.8831 13.5907C14.7838 13.5858 14.6839 13.5833 14.5833 13.5833C11.3617 13.5833 8.75 16.1204 8.75 19.25C8.75 19.3304 8.75173 19.4105 8.75514 19.4901C7.05322 20.0721 5.83333 21.6477 5.83333 23.5C5.83333 25.8472 7.79209 27.75 10.2083 27.75Z" fill="white"/>
</svg>
